<svg width="1280" height="640" viewBox="0 0 1280 640" fill="none" xmlns="http://www.w3.org/2000/svg">
<g clip-path="url(#clip0_3101_2)">
<rect width="1280" height="640" fill="url(#paint0_linear_3101_2)"/>
<mask id="mask0_3101_2" style="mask-type:luminance" maskUnits="userSpaceOnUse" x="1044" y="45" width="192" height="31">
<path d="M1235.41 45H1044V75.6549H1235.41V45Z" fill="white"/>
</mask>
<g mask="url(#mask0_3101_2)">
<path d="M1235.26 73.6267C1235.24 73.5217 1235.23 73.4189 1235.21 73.315C1234.77 70.6495 1233.91 68.0715 1232.66 65.6762C1231.44 63.329 1229.86 61.1842 1227.98 59.3193C1226.61 57.9554 1225.09 56.7501 1223.45 55.7264C1223.46 55.71 1223.47 55.6924 1223.47 55.676C1223.99 54.7868 1224.51 53.8965 1225.03 53.0073C1225.89 51.5132 1226.75 50.0203 1227.62 48.5262C1227.84 48.1631 1227.95 47.7508 1227.94 47.3319C1227.94 46.9119 1227.83 46.5006 1227.61 46.1408C1227.41 45.8061 1227.13 45.5282 1226.79 45.3303C1226.49 45.1487 1226.14 45.0393 1225.79 45.0087C1225.52 44.9857 1225.25 45.0098 1224.99 45.0776C1224.69 45.1574 1224.41 45.2942 1224.16 45.4812C1223.92 45.6682 1223.71 45.9023 1223.56 46.1691L1222.48 48.0417L1220.97 50.6492C1220.44 51.5395 1219.93 52.4287 1219.42 53.319C1219.36 53.4164 1219.31 53.5137 1219.25 53.6122C1219.17 53.5805 1219.09 53.5498 1219.01 53.5203C1216.09 52.4079 1213 51.8392 1209.87 51.8436C1209.78 51.8436 1209.69 51.8436 1209.6 51.8446C1206.82 51.8698 1204.05 52.35 1201.42 53.2654C1201.12 53.3693 1200.83 53.4787 1200.54 53.5936C1200.48 53.5028 1200.43 53.4109 1200.38 53.3201C1199.86 52.4309 1199.35 51.5406 1198.83 50.6514C1197.97 49.1573 1197.1 47.6633 1196.24 46.1703C1196.01 45.7842 1195.68 45.4703 1195.29 45.2647C1194.89 45.059 1194.45 44.9704 1194.01 45.0098C1193.65 45.0393 1193.31 45.1487 1193 45.3313C1192.48 45.6442 1192.09 46.1517 1191.94 46.7456C1191.82 47.1809 1191.83 47.6403 1191.97 48.0691C1192.02 48.2255 1192.08 48.3796 1192.17 48.5273C1192.53 49.1507 1192.9 49.7764 1193.26 50.3998C1193.77 51.2694 1194.27 52.1389 1194.77 53.0073C1195.29 53.8976 1195.8 54.7869 1196.32 55.6772C1196.33 55.6848 1196.33 55.6925 1196.33 55.7001C1194.67 56.7294 1193.13 57.9445 1191.75 59.3215C1190.73 60.3453 1189.79 61.4543 1188.94 62.6367C1188.24 63.6057 1187.62 64.6218 1187.07 65.6784C1186.12 67.4973 1185.4 69.4245 1184.91 71.4173C1184.75 72.0462 1184.63 72.6795 1184.52 73.3172C1184.45 73.794 1184.38 74.2731 1184.33 74.7532H1235.41C1235.36 74.377 1235.32 74.0029 1235.26 73.6289V73.6267Z" fill="#35CB64"/>
<path d="M1223.16 67.6909C1224.17 67.0106 1224.33 65.4368 1223.48 64.1746C1222.64 62.9135 1221.13 62.4432 1220.12 63.1235C1219.1 63.8038 1218.95 65.3777 1219.79 66.6388C1220.62 67.901 1222.13 68.3712 1223.16 67.6909ZM1199.99 66.6432C1200.83 65.3821 1200.68 63.8081 1199.66 63.1278C1198.63 62.4475 1197.14 62.9178 1196.29 64.18C1195.45 65.4411 1195.6 67.015 1196.62 67.6953C1197.65 68.3756 1199.16 67.9054 1199.99 66.6432ZM1159.06 65.1873C1159.06 61.7606 1161.53 59.0558 1164.65 59.0558C1167.78 59.0558 1170.07 61.6841 1170.07 65.1873C1170.07 68.6917 1167.74 71.3955 1164.65 71.3955C1161.58 71.3955 1159.06 68.6534 1159.06 65.1873ZM1148.33 74.7468H1152.71V55.7045H1148.33V74.7468ZM1147.64 49.3444C1147.64 50.9817 1148.98 52.315 1150.53 52.315C1152.1 52.315 1153.39 50.9817 1153.39 49.3444C1153.39 47.8208 1152.1 46.5269 1150.53 46.5269C1148.98 46.5269 1147.64 47.8208 1147.64 49.3444ZM1130.47 65.1491C1130.47 61.7213 1132.99 59.0558 1136.22 59.0558C1139.46 59.0558 1141.97 61.7213 1141.97 65.1491C1141.97 68.5769 1139.42 71.3955 1136.22 71.3955C1133.03 71.3955 1130.47 68.6152 1130.47 65.1491ZM1126.02 65.1491C1126.02 70.8617 1130.52 75.356 1136.22 75.356C1141.93 75.356 1146.43 70.8617 1146.43 65.1491C1146.43 59.4364 1142.01 55.0942 1136.22 55.0942C1130.44 55.0942 1126.02 59.4747 1126.02 65.1491ZM1114.19 74.7468H1118.56V64.7696C1118.56 60.808 1120.66 59.0558 1124.16 59.0558C1124.81 59.0558 1125.3 59.0941 1125.76 59.209V55.3622C1125.3 55.2091 1124.5 55.0953 1123.63 55.0953C1117.69 55.0953 1114.19 58.8272 1114.19 64.7696V74.7468ZM1096.64 65.1873C1096.64 61.7595 1099.11 59.0558 1102.23 59.0558C1105.36 59.0558 1107.63 61.6841 1107.63 65.1873C1107.63 68.6917 1105.32 71.3955 1102.23 71.3955C1099.15 71.3955 1096.64 68.6534 1096.64 65.1873ZM1092.19 65.1873C1092.19 70.7097 1096.6 75.356 1101.82 75.356C1103.98 75.356 1105.96 74.4799 1107.14 73.0328H1107.34V74.7468H1111.71V45.0033H1107.34V57.2665H1107.14C1106 55.896 1104.02 55.0953 1101.82 55.0953C1096.57 55.0953 1092.19 59.7044 1092.19 65.1885M1073.01 74.7468H1077.38V63.5883C1077.38 60.9228 1079.16 59.0558 1081.65 59.0558C1084.12 59.0558 1085.9 60.9217 1085.9 63.5883V74.7468H1090.29V63.5883C1090.29 58.9421 1086.59 55.0953 1081.65 55.0953C1076.69 55.0953 1073.01 58.9421 1073.01 63.5883V74.7468ZM1052.9 63.3214L1057.63 49.8016H1057.86L1062.57 63.3214H1052.9ZM1044 74.7468H1048.94L1051.43 67.6636H1064.06L1066.53 74.7468H1071.49L1060.48 45.0033H1055L1044 74.7468ZM1164.24 75.3571C1166.4 75.3571 1168.38 74.4809 1169.56 73.0339H1169.76V74.7468H1174.13V45.0033H1169.76V57.2665H1169.56C1168.43 55.896 1166.45 55.0953 1164.24 55.0953C1158.99 55.0953 1154.61 59.7044 1154.61 65.1885C1154.61 70.6725 1159.02 75.3571 1164.24 75.3571Z" fill="white"/>
<path d="M1223.16 67.6909C1224.17 67.0106 1224.33 65.4367 1223.48 64.1745C1222.64 62.9135 1221.13 62.4431 1220.12 63.1235C1219.1 63.8038 1218.95 65.3777 1219.79 66.6388C1220.62 67.9009 1222.13 68.3712 1223.16 67.6909ZM1199.99 66.6432C1200.83 65.3821 1200.68 63.8081 1199.66 63.1278C1198.63 62.4475 1197.14 62.9178 1196.29 64.18C1195.45 65.4411 1195.6 67.015 1196.62 67.6953C1197.65 68.3756 1199.16 67.9053 1199.99 66.6432Z" fill="#14140C"/>
</g>
<path d="M607.423 180.508C614.277 151.717 649.443 140.752 671.446 160.545L1157.45 597.756L1095.48 615.027L842.13 685.628L461.956 791.573L607.423 180.508Z" fill="#0D66DA"/>
<path d="M613.522 165.206C626.893 146.097 654.861 145.165 669.475 163.341L1068 659H996.713H705.296H268L613.522 165.206Z" fill="#579EFE"/>
<path d="M1112.04 186.807C1118.53 178.937 1130.45 178.526 1137.48 185.93L1629 704H1544.88H1201.01H685L1112.04 186.807Z" fill="#59A1FE"/>
<path d="M68.0657 268.307C72.5553 263.67 79.9083 263.415 84.7085 267.729L668 792H569.356H166.109H-439L68.0657 268.307Z" fill="#187BFD"/>
<path d="M834.273 225.027C845.325 202.946 874.492 197.68 892.568 214.502L1355.61 645.438L1285.25 655.735L997.627 697.831L566.022 761L834.273 225.027Z" fill="#1060C9"/>
<path d="M836.569 218.333C849.938 199.18 877.959 198.246 892.573 216.468L1290 712H1218.89H928.203H492L836.569 218.333Z" fill="#94C0FF"/>
<path d="M183.167 219.855C193.075 191.906 228.198 182.955 250.287 202.749L686.045 593.229V680.173H19.9928L183.167 219.855Z" fill="#145BB7"/>
<path d="M185.525 211.288C201.618 185.159 239.492 184.79 256.091 210.6L560.99 684.701H-96V668.399L185.525 211.288Z" fill="#6DACFF"/>
<path d="M331.015 291.818C342.672 267.653 373.81 260.637 394.714 277.466L826.5 651.5H797.5L109.514 751L331.015 291.818Z" fill="#145BB7"/>
<path d="M328.899 279.064C345.156 257.717 377.068 257.066 394.182 277.733L701.5 646L686.951 684.701H19.9927L328.899 279.064Z" fill="#A9CDFF"/>
<path d="M451.341 184.774C451.341 217.786 424.563 244.548 391.532 244.548C358.5 244.548 331.723 217.786 331.723 184.774C331.723 151.762 358.5 125 391.532 125C424.563 125 451.341 151.762 451.341 184.774Z" fill="white"/>
</g>
<defs>
<linearGradient id="paint0_linear_3101_2" x1="640" y1="0" x2="640" y2="640" gradientUnits="userSpaceOnUse">
<stop stop-color="#0B75FF"/>
<stop offset="1" stop-color="#006DFB"/>
</linearGradient>
<clipPath id="clip0_3101_2">
<rect width="1280" height="640" fill="white"/>
</clipPath>
</defs>
</svg>
